<svg width="208" height="41" viewBox="0 0 208 41" fill="none" xmlns="http://www.w3.org/2000/svg">
<g clip-path="url(#clip0_9248_60785)">
<rect x="0.371094" y="8" width="35" height="25" rx="3.31579" fill="#224DBA"/>
<path fill-rule="evenodd" clip-rule="evenodd" d="M12.2961 24.674H10.2451L8.70709 18.674C8.63409 18.398 8.47909 18.154 8.25109 18.039C7.68209 17.75 7.05509 17.52 6.37109 17.404V17.173H9.67509C10.1311 17.173 10.4731 17.52 10.5301 17.923L11.3281 22.251L13.3781 17.173H15.3721L12.2961 24.674ZM16.5122 24.674H14.5752L16.1702 17.173H18.1072L16.5122 24.674ZM20.6131 19.251C20.6701 18.847 21.0121 18.616 21.4111 18.616C22.0381 18.558 22.7211 18.674 23.2911 18.962L23.6331 17.347C23.0631 17.116 22.4361 17 21.8671 17C19.9871 17 18.6191 18.039 18.6191 19.481C18.6191 20.578 19.5881 21.154 20.2721 21.501C21.0121 21.847 21.2971 22.078 21.2401 22.424C21.2401 22.943 20.6701 23.174 20.1011 23.174C19.4171 23.174 18.7331 23.001 18.1071 22.712L17.7651 24.328C18.4491 24.616 19.1891 24.732 19.8731 24.732C21.9811 24.789 23.2911 23.751 23.2911 22.193C23.2911 20.231 20.6131 20.116 20.6131 19.251ZM30.0701 24.674L28.5321 17.173H26.8801C26.5381 17.173 26.1961 17.404 26.0821 17.75L23.2341 24.674H25.2281L25.6261 23.578H28.0761L28.3041 24.674H30.0701ZM27.1651 19.193L27.7341 22.02H26.1391L27.1651 19.193Z" fill="white"/>
</g>
<g clip-path="url(#clip1_9248_60785)">
<rect x="43.3711" y="8" width="35" height="25" rx="3.31579" fill="#353A48"/>
<g clip-path="url(#clip2_9248_60785)">
<path fill-rule="evenodd" clip-rule="evenodd" d="M61.0552 25.8808C59.865 26.9091 58.3212 27.5298 56.6341 27.5298C52.8699 27.5298 49.8184 24.4393 49.8184 20.6269C49.8184 16.8144 52.8699 13.7239 56.6341 13.7239C58.3212 13.7239 59.865 14.3446 61.0552 15.3729C62.2454 14.3446 63.7892 13.7239 65.4763 13.7239C69.2405 13.7239 72.292 16.8144 72.292 20.6269C72.292 24.4393 69.2405 27.5298 65.4763 27.5298C63.7892 27.5298 62.2454 26.9091 61.0552 25.8808Z" fill="#FF5E00"/>
<path fill-rule="evenodd" clip-rule="evenodd" d="M61.0552 15.3729C59.5897 16.639 58.6605 18.523 58.6605 20.6269C58.6605 22.7307 59.5897 24.6147 61.0552 25.8808C59.865 26.9091 58.3212 27.5298 56.6341 27.5298C52.8699 27.5298 49.8184 24.4393 49.8184 20.6269C49.8184 16.8144 52.8699 13.7239 56.6341 13.7239C58.3212 13.7239 59.865 14.3446 61.0552 15.3729Z" fill="#ED0006"/>
<path fill-rule="evenodd" clip-rule="evenodd" d="M61.0547 25.8808C62.5202 24.6147 63.4494 22.7307 63.4494 20.6269C63.4494 18.523 62.5202 16.639 61.0547 15.3729C62.2449 14.3446 63.7887 13.7239 65.4757 13.7239C69.24 13.7239 72.2915 16.8144 72.2915 20.6269C72.2915 24.4393 69.24 27.5298 65.4757 27.5298C63.7887 27.5298 62.2449 26.9091 61.0547 25.8808Z" fill="#F9A000"/>
</g>
</g>
<g clip-path="url(#clip3_9248_60785)">
<rect x="86.3711" y="8" width="35" height="25" rx="3.35821" fill="#FFA200"/>
<path fill-rule="evenodd" clip-rule="evenodd" d="M116.254 20.3193H115.989V18.912H116.254C116.836 18.912 117.1 19.1726 117.1 19.5896C117.1 20.0587 116.836 20.3193 116.254 20.3193ZM118.053 19.5374C118.053 18.6514 117.471 18.1822 116.412 18.1822H115.089V22.8212H115.989V20.9448H116.095L117.312 22.8212H118.423L116.994 20.8927C117.63 20.7884 118.106 20.215 118.053 19.5374ZM111.967 22.8212H114.507V22.0394H112.867V20.7884H114.454V20.0066H112.867V18.9641H114.507V18.1822H111.967V22.8212ZM109.321 21.3096L108.104 18.1822H107.151L109.109 22.9255H109.585L111.543 18.1822H110.591L109.321 21.3096ZM98.5775 20.5278C98.5775 21.8309 99.6359 22.9255 100.959 22.9255C101.382 22.9255 101.753 22.8212 102.123 22.6648V21.6224C101.859 21.9351 101.488 22.1436 101.065 22.1436C100.218 22.1436 99.5301 21.5181 99.5301 20.6842V20.5799C99.4772 19.7459 100.165 19.0162 101.012 18.9641C101.435 18.9641 101.859 19.1726 102.123 19.4853V18.4429C101.806 18.2344 101.382 18.1822 101.012 18.1822C99.6359 18.078 98.5775 19.1726 98.5775 20.5278ZM96.9369 19.9544C96.4077 19.7459 96.2489 19.6417 96.2489 19.3811C96.3018 19.0683 96.5664 18.8077 96.884 18.8598C97.1486 18.8598 97.4132 19.0162 97.6249 19.2247L98.1012 18.5992C97.7307 18.2865 97.2544 18.078 96.7781 18.078C96.0372 18.0259 95.4021 18.5992 95.3492 19.329V19.3811C95.3492 20.0066 95.6138 20.3714 96.4606 20.632C96.6723 20.6842 96.884 20.7884 97.0957 20.8927C97.2544 20.9969 97.3603 21.1533 97.3603 21.3618C97.3603 21.7266 97.0427 22.0394 96.7252 22.0394H96.6723C96.2489 22.0394 95.8784 21.7787 95.7197 21.4139L95.1375 21.9872C95.4551 22.5606 96.0901 22.8733 96.7252 22.8733C97.572 22.9255 98.2599 22.3 98.3129 21.466V21.3096C98.2599 20.6842 97.9953 20.3714 96.9369 19.9544ZM93.8674 22.8212H94.7671V18.1822H93.8674V22.8212ZM92.068 21.6745C91.7505 21.9351 91.2742 22.0915 90.8508 22.0394H90.5862V18.9641H90.8508C91.2742 18.912 91.7505 19.0683 92.068 19.329C92.3856 19.6417 92.5443 20.0587 92.5443 20.4757C92.5443 20.9448 92.3856 21.3618 92.068 21.6745ZM91.0096 18.1822H89.6865V22.8212H91.0096C91.5917 22.8733 92.1739 22.6648 92.6502 22.3C93.1794 21.8309 93.4969 21.2054 93.4969 20.5278C93.5499 19.2768 92.5443 18.2344 91.2742 18.1822H91.0096ZM104.822 18.0747C103.499 18.0747 102.388 19.1172 102.388 20.4724C102.388 21.7755 103.446 22.87 104.822 22.9222C106.198 22.9743 107.257 21.8797 107.31 20.5245C107.257 19.1693 106.198 18.0747 104.822 18.0747Z" fill="white"/>
</g>
<g clip-path="url(#clip4_9248_60785)">
<rect x="129.371" y="8" width="35" height="25" rx="3.31579" fill="#2183CB"/>
<path fill-rule="evenodd" clip-rule="evenodd" d="M145.582 27.7766H148.144C152.142 27.7766 155.328 24.5499 155.453 20.564V20.5007C155.39 16.4515 152.142 13.1615 148.144 13.2248H145.27C141.459 13.3513 138.461 16.6413 138.586 20.564C138.586 24.4867 141.709 27.7134 145.582 27.7766ZM139.835 20.5007C139.835 17.2107 142.521 14.4902 145.77 14.4902C149.018 14.4902 151.704 17.2107 151.704 20.5007C151.704 23.7907 149.018 26.5113 145.77 26.5113C142.521 26.5113 139.835 23.7907 139.835 20.5007ZM146.707 24.5499V16.5148C148.893 17.0842 150.268 19.2986 149.705 21.513C149.331 23.0315 148.206 24.1703 146.707 24.5499ZM141.897 19.4884C141.334 21.7028 142.646 23.9805 144.833 24.5499V16.5148C143.396 16.8944 142.272 18.0332 141.897 19.4884Z" fill="white"/>
</g>
<g clip-path="url(#clip5_9248_60785)">
<rect x="172.371" y="8" width="35" height="25" rx="3.31579" fill="#007ECD"/>
<path fill-rule="evenodd" clip-rule="evenodd" d="M203.116 24.9888H201.58V24.215H202.921C202.921 24.215 203.41 24.2719 203.41 23.9489C203.41 23.6462 202.679 23.6697 202.679 23.6697C202.679 23.6697 201.488 23.7722 201.488 22.6689C201.488 21.5713 202.564 21.634 202.564 21.634H204.216V22.4186H202.886C202.886 22.4186 202.426 22.327 202.426 22.658C202.426 22.9354 203.053 22.8959 203.053 22.8959C203.053 22.8959 204.371 22.7996 204.371 23.8116C204.371 24.8965 203.522 24.9931 203.221 24.9931C203.156 24.9931 203.116 24.9888 203.116 24.9888ZM195.451 24.9942V21.6398H198.143V22.4186H196.319V22.9353H198.098V23.6979H196.319V24.2671H198.143V24.9942H195.451ZM200.072 24.9888H198.535V24.215H199.882C199.882 24.215 200.365 24.2719 200.365 23.9489C200.365 23.6462 199.634 23.6697 199.634 23.6697C199.634 23.6697 198.443 23.7722 198.443 22.6689C198.443 21.5713 199.519 21.634 199.519 21.634H201.178V22.4186H199.842C199.842 22.4186 199.381 22.327 199.381 22.658C199.381 22.9354 200.008 22.8959 200.008 22.8959C200.008 22.8959 201.327 22.7996 201.327 23.8116C201.327 24.8965 200.478 24.9931 200.176 24.9931C200.111 24.9931 200.072 24.9888 200.072 24.9888ZM188.429 24.9946H187.675L186.76 23.9988L185.839 24.9946H185.315H182.627V21.6286H185.315H185.77L186.76 22.6975L187.755 21.6343H188.417V21.6286H190.512C190.512 21.6286 191.606 21.5091 191.606 22.6171C191.606 23.6067 191.242 23.9141 190.127 23.9141H189.281V24.9946H188.429ZM187.347 23.3406L188.418 24.5112V22.1743L187.347 23.3406ZM183.497 24.2668H185.315L186.167 23.3405L185.315 22.419H183.497V22.9357H185.269V23.6983H183.497V24.2668ZM189.281 23.0378H190.173C190.432 23.0378 190.645 22.8959 190.645 22.7195C190.645 22.5439 190.432 22.4013 190.173 22.4013H189.281V23.0378ZM194.184 25V24.3461C194.184 24.3461 194.149 23.8344 193.608 23.8344H192.769V25H191.905V21.6398H194C194 21.6398 195.093 21.5091 195.093 22.6232C195.093 23.2033 194.61 23.4079 194.61 23.4079C194.61 23.4079 195.025 23.6013 195.025 24.1694V25H194.184ZM192.769 23.044H193.66C193.92 23.044 194.132 22.902 194.132 22.7257C194.132 22.5494 193.92 22.4074 193.66 22.4074H192.769V23.044ZM192.118 20.4003H192.986V17.0292H192.118V20.4003ZM185.43 20.3888V17.0289H188.124V17.8132H186.299V18.3306H188.078V19.0925H186.299V19.6617H188.124V20.3888H185.43ZM184.078 20.3891V18.0692L182.996 20.3891H182.288L181.2 18.0804V20.3891H180.446H180.331H179.496L179.197 19.6841H177.62L177.315 20.3891H176.371L177.804 17.0285H179.018L180.331 20.1161V17.0285H181.695L182.645 19.1152L183.588 17.0285H184.952V20.3891H184.078ZM177.989 18.8252H178.829L178.409 17.8247L177.989 18.8252ZM201.038 20.3891L199.669 18.143V20.3891H198.927H198.788H197.977L197.672 19.6841H196.095L195.795 20.3891H195.001H194.857H194.443C194.443 20.3891 193.281 20.224 193.281 18.8028C193.281 16.9376 194.599 17.0115 194.644 17.0002L195.709 17.0285V17.7849L194.835 17.7961C194.835 17.7961 194.265 17.7961 194.195 18.5297C194.188 18.6145 194.184 18.6912 194.184 18.7633C194.188 19.8992 195.182 19.5469 195.215 19.536L196.285 17.0285H197.493L198.788 20.0762V17.0285H200.008L201.361 19.2405V17.0285H202.23V20.3891H201.038ZM196.463 18.8252H197.304L196.889 17.8247L196.463 18.8252ZM190.851 20.3891V19.7351C190.851 19.7351 190.817 19.2235 190.276 19.2235H189.436V20.3891H188.572V17.0285H190.667C190.667 17.0285 191.761 16.8977 191.761 18.0123C191.761 18.5924 191.277 18.7969 191.277 18.7969C191.277 18.7969 191.697 18.9903 191.697 19.5588V20.3891H190.851ZM189.436 18.4331H190.328C190.587 18.4331 190.8 18.2908 190.8 18.1144C190.8 17.9384 190.587 17.7961 190.328 17.7961H189.436V18.4331Z" fill="white"/>
</g>
<defs>
<clipPath id="clip0_9248_60785">
<rect width="35" height="25" fill="white" transform="translate(0.371094 8)"/>
</clipPath>
<clipPath id="clip1_9248_60785">
<rect width="35" height="25" fill="white" transform="translate(43.3711 8)"/>
</clipPath>
<clipPath id="clip2_9248_60785">
<rect width="23" height="14" fill="white" transform="translate(49.6338 13.5969)"/>
</clipPath>
<clipPath id="clip3_9248_60785">
<rect width="35" height="25" fill="white" transform="translate(86.3711 8)"/>
</clipPath>
<clipPath id="clip4_9248_60785">
<rect width="35" height="25" fill="white" transform="translate(129.371 8)"/>
</clipPath>
<clipPath id="clip5_9248_60785">
<rect width="35" height="25" fill="white" transform="translate(172.371 8)"/>
</clipPath>
</defs>
</svg>
